<svg width="800" height="800" viewBox="0 0 800 800" fill="none" xmlns="http://www.w3.org/2000/svg">
<path d="M602 311C593.69 311 585.72 314.301 579.843 320.178C573.966 326.054 570.667 334.023 570.667 342.333V484.333C570.667 492.643 573.966 500.613 579.843 506.49C585.72 512.366 593.69 515.666 602 515.666C610.31 515.666 618.28 512.366 624.157 506.49C630.033 500.613 633.333 492.643 633.333 484.333V342.333C633.333 334.023 630.033 326.054 624.157 320.178C618.28 314.301 610.31 311 602 311Z" fill="#555A75"/>
<path d="M198 311C189.69 311 181.72 314.301 175.844 320.178C169.968 326.054 166.667 334.023 166.667 342.333V484.333C166.667 492.643 169.968 500.613 175.844 506.49C181.72 512.366 189.69 515.666 198 515.666C206.31 515.666 214.28 512.366 220.156 506.49C226.032 500.613 229.333 492.643 229.333 484.333V342.333C229.333 334.023 226.032 326.054 220.156 320.178C214.28 314.301 206.31 311 198 311Z" fill="#555A75"/>
<path d="M252 311V524.333C252 529.016 252.922 533.656 254.715 537.983C256.507 542.31 259.134 546.243 262.446 549.553C265.758 552.867 269.69 555.493 274.018 557.286C278.345 559.076 282.983 560 287.667 560H310.333V635.666C310.333 643.976 313.634 651.946 319.511 657.823C325.387 663.7 333.357 667 341.667 667C349.977 667 357.947 663.7 363.823 657.823C369.7 651.946 373 643.976 373 635.666V560H427V635.666C427 643.976 430.3 651.946 436.177 657.823C442.053 663.7 450.023 667 458.333 667C466.643 667 474.613 663.7 480.49 657.823C486.367 651.946 489.667 643.976 489.667 635.666V560H512.333C521.793 560 530.863 556.243 537.553 549.553C544.243 542.867 548 533.793 548 524.333V311H252Z" fill="#555A75"/>
<path d="M544 266.667C534.19 233.754 512.433 205.696 483 188.001L478 185.001L472.667 182.334L478.667 172.001L496.333 138.667C496.667 137.718 496.687 136.685 496.387 135.724C496.087 134.763 495.483 133.924 494.667 133.334H492.333C491.483 133.372 490.65 133.602 489.9 134.006C489.15 134.41 488.5 134.978 488 135.667L470 166.667L464.333 177.001L459 174.667L453.333 172.667C418.79 160.679 381.21 160.679 346.667 172.667L341.333 174.667L335.667 177.001L330 166.667L312 133.334C311.693 132.787 311.282 132.305 310.79 131.917C310.297 131.529 309.733 131.241 309.13 131.071C308.526 130.901 307.895 130.851 307.272 130.925C306.649 130.999 306.047 131.194 305.5 131.501C304.953 131.807 304.471 132.218 304.083 132.711C303.695 133.203 303.407 133.768 303.237 134.371C303.067 134.975 303.017 135.606 303.091 136.229C303.165 136.851 303.36 137.454 303.667 138.001L321.333 171.334L327.333 181.667L322 184.334L317 187.334C287.426 205.102 265.732 233.471 256.333 266.667C253.732 275.329 252.275 284.294 252 293.334H548C547.673 284.323 546.33 275.378 544 266.667ZM333.333 249.001C330.696 249.001 328.118 248.219 325.926 246.754C323.733 245.289 322.024 243.206 321.015 240.77C320.006 238.334 319.742 235.653 320.256 233.066C320.771 230.48 322.04 228.104 323.905 226.239C325.77 224.375 328.146 223.105 330.732 222.59C333.318 222.076 336 222.34 338.437 223.349C340.873 224.358 342.953 226.067 344.42 228.26C345.883 230.453 346.667 233.03 346.667 235.667C346.667 239.204 345.263 242.595 342.76 245.096C340.26 247.596 336.87 249.001 333.333 249.001ZM466.667 249.001C464.03 249.001 461.45 248.219 459.26 246.754C457.067 245.289 455.357 243.206 454.347 240.77C453.34 238.334 453.073 235.653 453.59 233.066C454.103 230.48 455.373 228.104 457.24 226.239C459.103 224.375 461.48 223.105 464.067 222.59C466.653 222.076 469.333 222.34 471.77 223.349C474.207 224.358 476.287 226.067 477.753 228.26C479.217 230.453 480 233.03 480 235.667C480 239.204 478.597 242.595 476.093 245.096C473.593 247.596 470.203 249.001 466.667 249.001Z" fill="#555A75"/>
</svg>
