<svg width="800" height="800" viewBox="0 0 800 800" fill="none" xmlns="http://www.w3.org/2000/svg">
<path d="M550.667 415.333C550.267 394.793 555.607 374.55 566.09 356.883C576.574 339.217 591.78 324.825 610 315.333C598.527 299.381 583.544 286.277 566.207 277.03C548.867 267.783 529.64 262.641 510 262C467.667 258.667 421.667 286.667 404.667 286.667C387.667 286.667 345.667 263.333 313.667 263.333C247 263.333 176.667 316.333 176.667 422C176.988 454.937 182.731 487.597 193.666 518.667C208.333 561.333 263.333 668.333 320.667 666.667C350.667 666.667 372 645.333 411 645.333C450 645.333 468.333 666.667 502 666.667C559.667 666.667 609.667 568.333 624 524.667C602.297 515.79 583.73 500.65 570.67 481.177C557.607 461.703 550.644 438.78 550.667 415.333ZM484 219.667C494.357 207.988 502.167 194.28 506.93 179.415C511.693 164.55 513.307 148.856 511.667 133.333C480.544 136.746 451.797 151.595 431 175C420.247 186.33 411.944 199.755 406.61 214.437C401.277 229.119 399.027 244.743 400 260.333C416.14 260.787 432.154 257.325 446.664 250.243C461.177 243.161 473.757 232.67 483.334 219.667H484Z" fill="#555A75"/>
</svg>
