<svg width="800" height="800" viewBox="0 0 800 800" fill="none" xmlns="http://www.w3.org/2000/svg">
<g clip-path="url(#clip0_17_829)">
<path d="M478.761 431.24C469.539 426.618 448.998 420.395 424.547 418.776C400.086 417.161 368.711 418.776 368.711 418.776V524.678C368.711 524.678 401.473 525.376 423.401 523.76C445.308 522.145 467.924 516.61 479.23 510.373C490.529 504.143 504.146 494.452 504.146 470.231C504.146 445.999 487.993 435.854 478.761 431.24Z" fill="#555A75"/>
<path d="M409.777 369.628C427.782 368.933 446.931 364.785 460.763 357.169C474.609 349.556 482.451 337.565 481.999 319.563C481.527 301.565 469.54 286.339 449.238 280.102C428.929 273.873 415.326 273.41 399.857 273.181C384.399 272.955 368.708 274.338 368.708 274.338V369.628C368.708 369.628 391.782 370.323 409.777 369.628Z" fill="#555A75"/>
<path d="M400.086 0C179.126 0 0 179.122 0 400.086C0 621.047 179.126 800.173 400.086 800.173C621.047 800.173 800.166 621.047 800.166 400.086C800.166 179.122 621.047 0 400.086 0ZM562.988 553.061C533.215 573.829 501.377 577.526 487.302 579.364C480.356 580.278 468.457 581.241 455.697 581.989V662.201H406.316V583.287C397.091 583.287 383.877 583.287 368.711 583.287V662.201H319.334V583.287C270.468 583.287 222.199 583.287 222.199 583.287L232.348 523.979C232.348 523.979 251.959 523.979 261.878 523.979C271.805 523.979 275.95 523.058 280.102 519.139C284.255 515.213 285.179 509.219 285.179 504.365C285.179 499.522 285.179 312.861 285.179 300.055C285.179 287.257 284.138 283.792 278.254 277.22C272.37 270.634 258.531 269.77 250.738 269.77C242.952 269.77 222.195 269.77 222.195 269.77V218.502C222.195 218.502 268.923 218.502 319.33 218.502V139.362H368.704V218.502C382.423 218.502 395.292 218.502 406.309 218.502V139.362H455.69V219.451C492.501 221.733 519.905 228.746 543.822 246.42C574.746 269.262 573.123 308.945 572.432 318.406C571.744 327.867 567.592 346.099 559.277 357.856C550.98 369.628 530.675 381.397 530.675 381.397C530.675 381.397 554.667 386.47 571.518 399.162C588.349 411.855 600.823 434.231 600.114 466.996C599.436 499.761 592.748 532.297 562.988 553.061Z" fill="#555A75"/>
</g>
<defs>
<clipPath id="clip0_17_829">
<rect width="800" height="800" fill="white"/>
</clipPath>
</defs>
</svg>
