<svg width="800" height="800" viewBox="0 0 800 800" fill="none" xmlns="http://www.w3.org/2000/svg">
<g clip-path="url(#clip0_17_812)">
<path d="M487.333 278.334C473.333 287.667 429 311.667 422.333 318C417.236 322.929 410.423 325.684 403.333 325.684C396.243 325.684 389.43 322.929 384.333 318C377.666 312.667 333.333 287.334 319.333 278.334C305.333 269.334 304.333 255 322 247.667C347.823 236.446 375.678 230.655 403.833 230.655C431.989 230.655 459.843 236.446 485.666 247.667C502 254.667 502.666 267.667 485.666 277.667M726.333 520.333C695.7 450.971 652.916 387.642 600 333.334C583.098 315.779 570.939 294.214 564.666 270.667C561.333 259.667 559 248.333 556.666 237.333C552.495 207.053 544.66 177.391 533.333 149C522.713 124.024 504.829 102.818 482.003 88.1358C459.177 73.4535 432.464 65.9734 405.333 66.6668C377.968 65.6632 350.908 72.7071 327.506 86.9265C304.103 101.146 285.384 121.916 273.666 146.667C266.78 160.886 261.632 175.883 258.333 191.333C252.666 216.667 247.666 243 241.666 268.667C236.497 290.569 224.888 310.422 208.333 325.667C155.404 377.332 111.667 437.64 78.9998 504C74.1275 513.44 70.0037 523.248 66.6665 533.333C60.3331 555.333 76.3331 570.667 99.9998 566.667C114.666 563.667 129.333 560.667 143.333 556.334C157.333 552 162.333 556.334 165.666 568C175.521 602.479 193.497 634.092 218.088 660.191C242.679 686.29 273.168 706.114 307 718C444.333 770 604.666 696 640.333 565.333C642.666 556.333 646 553 656 556.334C671.333 561 687 564.334 702.666 568C706.105 569.004 709.725 569.226 713.261 568.649C716.797 568.071 720.158 566.71 723.099 564.664C726.04 562.618 728.486 559.94 730.257 556.826C732.027 553.711 733.079 550.24 733.333 546.667C733.728 538.228 731.888 529.834 728 522.334" fill="#555A75"/>
</g>
<defs>
<clipPath id="clip0_17_812">
<rect width="800" height="800" fill="white"/>
</clipPath>
</defs>
</svg>
