<svg width="512" height="512" viewBox="0 0 512 512" fill="none" xmlns="http://www.w3.org/2000/svg">
<g clip-path="url(#clip0_1_2)">
<path d="M0 0H512V512H0V0Z" fill="#2C2C2C"/>
<path d="M238.67 124.213C239.204 125.506 229.457 180.835 228.459 187.273C226.834 197.75 223.609 215.404 221.937 226.431C225.271 226.224 228.681 226.393 232.02 226.321C248.845 225.956 266.053 226.824 282.845 226.265C266.193 243.279 248.898 259.845 232.11 276.733C229.36 279.5 226.417 282.062 223.785 284.962C219.884 284.962 215.982 284.928 212.081 284.858C211.446 287.575 210.513 297.263 209.441 298.66C206.211 302.875 198.431 310.062 194.71 313.8L145.822 362.217C135.364 372.74 124.838 383.195 114.243 393.58C115.693 386.718 116.818 379.01 117.978 372.035L123.991 336.005L143.72 218.492C146.344 215.596 149.215 213.047 151.997 210.309L168.259 194.193L205.374 157.236C216.581 146.338 227.68 135.33 238.67 124.213Z" fill="#FEFEFE"/>
<path d="M397.33 124.186C397.627 125.115 389.567 171.837 388.735 176.818L368.305 298.712C363.997 303.327 358.585 308.475 354.038 312.925L336.092 330.59L297.517 369.01L282.693 383.693C279.395 386.933 276.015 390.01 272.885 393.415C275.845 377.43 278.102 361.075 281.062 345.038C281.188 343.548 281.847 340.217 282.11 338.65L284.285 325.628L291.1 284.89C275.368 285.215 259.493 284.722 243.747 284.932C240.797 284.97 237.883 284.898 234.928 285.015C254.842 265.833 274.453 245.651 294.225 226.268C296.273 226.403 298.793 226.388 300.878 226.434C301.28 224.534 301.668 219.395 302.595 218.181C304.088 216.229 307.075 213.486 308.932 211.63L325.79 195.051L381.175 140.12C386.597 134.839 391.812 129.387 397.33 124.186Z" fill="#FEFEFE"/>
<path d="M153.932 82.987C164.191 82.79 175.114 82.9633 185.429 82.9623L233.474 83.015L229.357 107.617C228.664 111.829 227.908 121.649 225.154 124.396C217.081 132.45 208.803 140.495 200.683 148.497L171.469 177.573L141.736 206.972C138.242 210.361 134.787 214.06 131.193 217.309C132.283 213.619 133.38 205.863 134.074 201.763L138.991 172.388L153.932 82.987Z" fill="#FEFEFE"/>
<path d="M312.147 83.0185C322.227 82.8383 332.56 82.9618 342.67 82.9615L391.633 83.0003C391.17 87.117 390.09 92.658 389.395 96.8508L385.142 122.401L329.467 177.572C316.3 190.758 302.902 204.308 289.547 217.298C290.66 212.453 291.557 206.037 292.392 201.031L297.103 173L312.147 83.0185Z" fill="#FEFEFE"/>
<path d="M383.575 299.695L383.855 300.022C383.28 304.977 382.083 311.162 381.255 316.152L376.142 346.595L362.332 429.043L283.06 429.03C283.05 429.015 283.033 429.005 283.025 428.99C282.665 428.067 288.09 396.478 288.92 393.57C298.953 383.085 310.425 372.235 320.808 362L359.405 323.538L374.653 308.465C377.613 305.567 380.753 302.708 383.575 299.695Z" fill="#FEFEFE"/>
<path d="M224.212 299.693L224.509 300.122C224.048 304.57 222.603 311.677 221.816 316.375L216.463 348.45L207.9 399.305C206.276 409.042 204.742 419.397 202.934 429.06L123.793 429.013C123.291 428.42 124.821 419.952 125.137 418.955C126.356 415.12 127.983 396.133 129.683 394.038C134.101 388.595 144.377 379.097 149.579 373.9L185.374 338.235C198.433 325.502 211.38 312.655 224.212 299.693Z" fill="#FEFEFE"/>
</g>
<defs>
<clipPath id="clip0_1_2">
<rect width="512" height="512" fill="white"/>
</clipPath>
</defs>
</svg>
