<svg width="800" height="800" viewBox="0 0 800 800" fill="none" xmlns="http://www.w3.org/2000/svg">
<g clip-path="url(#clip0_17_823)">
<path d="M399.931 0C179.055 0 0 179.055 0 399.931C0 620.804 179.055 799.862 399.931 799.862C620.804 799.862 799.862 620.804 799.862 399.931C799.862 179.055 620.804 0 399.931 0ZM496.992 253.461C496.992 253.677 496.964 253.881 496.982 254.1L510.038 398.728L411.149 253.461H496.992ZM402.521 265.995L506.147 418.226H297.272L402.521 265.995ZM306.765 253.461H393.948L293.314 399.014L306.765 254.118C306.786 253.895 306.765 253.684 306.765 253.461ZM283.747 253.461H292.583L277.432 416.688L172.857 393.913L283.747 253.461ZM177.115 409.361L279.101 431.568L383.496 617.957L177.115 409.361ZM295.787 432.411H507.3L402.048 622.165L295.787 432.411ZM420.794 618.027L524.131 431.592L627.753 409.407L420.794 618.027ZM525.902 416.709L511.163 253.461H519.559L632.209 393.952L525.902 416.709Z" fill="#555A75"/>
</g>
<defs>
<clipPath id="clip0_17_823">
<rect width="800" height="800" fill="white"/>
</clipPath>
</defs>
</svg>
