<svg width="800" height="800" viewBox="0 0 800 800" fill="none" xmlns="http://www.w3.org/2000/svg">
<g clip-path="url(#clip0_17_825)">
<path d="M449.178 353.927V413.823C433.43 414.614 416.959 415.048 400.001 415.048C381.576 415.048 363.744 414.543 346.779 413.598V365.776H346.769V354.11C252.657 358.64 182.988 374.913 182.988 394.298C182.988 417.196 280.148 435.745 400.005 435.745C519.855 435.745 617.022 417.196 617.022 394.298C617.018 374.627 545.335 358.178 449.178 353.927Z" fill="#555A75"/>
<path d="M400.002 -0.00341797C179.09 -0.00341797 0 179.076 0 399.995C0 620.903 179.09 800 400.002 800C620.913 800 800 620.903 800 399.995C800 179.076 620.91 -0.00341797 400.002 -0.00341797ZM449.171 467.907V644.348H346.765V467.667C237.142 461.324 155.137 435.826 155.137 405.318C155.137 374.818 237.142 349.323 346.765 342.97V293.529H207.354V191.127H588.596V293.529H449.171L449.178 342.733C560.843 348.674 644.873 374.444 644.873 405.318C644.87 436.2 560.843 461.973 449.171 467.907Z" fill="#555A75"/>
</g>
<defs>
<clipPath id="clip0_17_825">
<rect width="800" height="800" fill="white"/>
</clipPath>
</defs>
</svg>
